<?xml version="1.0" encoding="iso-8859-1"?>
<!-- Generator: Adobe Illustrator 19.0.0, SVG Export Plug-In . SVG Version: 6.00 Build 0)  -->
<svg version="1.1" id="Capa_1" xmlns="http://www.w3.org/2000/svg" xmlns:xlink="http://www.w3.org/1999/xlink" x="0px" y="0px"
	 viewBox="0 0 488 488" style="enable-background:new 0 0 488 488;" xml:space="preserve">
<g>
	<g>
		<path d="M409.1,115.3C387.3,46.8,320.8,0,244,0S100.7,46.8,78.9,114.2C32.2,130.8,0,172.4,0,220.1c0,19.7,5.2,38.4,15.6,55
			c5.2,10.4,17.6,13.5,26,7.3c9.3-6.2,13.5-18.7,7.3-28c-6.2-10.4-9.3-21.8-9.3-34.3c0-33.2,24.9-61.3,59.2-69.6
			c8.3-1,13.5-7.3,15.6-14.5c13.5-55,68.5-95.5,129.8-95.5S360.3,81,372.7,136c2.1,7.3,8.3,12.5,15.6,14.5
			c35.3,8.3,59.2,37.4,59.2,69.6c0,22.8-10.4,43.6-30.1,57.1c-9.3,6.2-11.4,18.7-5.2,28c10.9,13.2,24.9,7.3,28,5.2
			c30.1-20.8,47.8-54,47.8-89.3C488,173.4,455.8,130.8,409.1,115.3z"/>
		<path d="M380,239.8c0-49.8-40.5-90.3-91.4-90.3s-91.4,40.5-91.4,90.3v40.5H75.8c-11.4,0-20.8,9.3-20.8,20.8v166.1
			c0,11.4,9.3,20.8,20.8,20.8h193.1c10.4,0,19.7-9.3,19.7-19.7V301.1c0-11.4-9.3-20.8-20.8-20.8h-29.1v-40.5
			c0-27,22.8-49.8,50.9-49.8s50.9,22.8,50.9,49.8V300c0,11.4,9.3,20.8,20.8,20.8s20.8-8.3,18.7-20.8L380,239.8L380,239.8z
			 M248.2,447.5H96.6V320.8h151.6V447.5z"/>
	</g>
</g>
<g>
</g>
<g>
</g>
<g>
</g>
<g>
</g>
<g>
</g>
<g>
</g>
<g>
</g>
<g>
</g>
<g>
</g>
<g>
</g>
<g>
</g>
<g>
</g>
<g>
</g>
<g>
</g>
<g>
</g>
</svg>
